<?xml version="1.0" encoding="UTF-8"?>
<svg id="Title" xmlns="http://www.w3.org/2000/svg" viewBox="0 0 841.68 200">
  <defs>
    <style>
      .cls-1 {
        fill: #000;
        stroke-width: 0px;
      }

      .cls-2 {
        fill: none;
        stroke: #000;
        stroke-miterlimit: 10;
      }
    </style>
  </defs>
  <g>
    <path class="cls-1" d="M87.27,48.68h-8.57v5.49h7.16c.66,0,1.16.15,1.49.45s.49.7.49,1.19-.17.89-.5,1.19-.83.44-1.48.44h-7.16v7.08c0,.9-.2,1.56-.61,2s-.92.65-1.56.65-1.17-.22-1.58-.66-.61-1.1-.61-1.99v-16.52c0-.62.09-1.14.28-1.53s.48-.68.87-.86.9-.27,1.52-.27h10.25c.69,0,1.21.15,1.54.46s.51.71.51,1.21-.17.92-.51,1.22-.85.46-1.54.46Z"/>
    <path class="cls-1" d="M106.11,59.03c0,1.19-.19,2.29-.56,3.3s-.91,1.87-1.61,2.59-1.54,1.28-2.52,1.66-2.08.58-3.3.58-2.3-.2-3.27-.59-1.8-.95-2.51-1.68-1.25-1.59-1.61-2.58-.55-2.09-.55-3.29.19-2.32.56-3.33.9-1.87,1.6-2.58,1.53-1.26,2.52-1.65,2.08-.58,3.27-.58,2.31.2,3.3.59,1.83.95,2.53,1.67,1.24,1.58,1.6,2.58.55,2.09.55,3.3ZM102.1,59.03c0-1.63-.36-2.9-1.08-3.81s-1.68-1.36-2.89-1.36c-.78,0-1.47.2-2.07.61s-1.05,1-1.38,1.79-.48,1.71-.48,2.77.16,1.96.48,2.74.77,1.38,1.36,1.79,1.29.62,2.09.62c1.21,0,2.17-.46,2.89-1.37s1.08-2.18,1.08-3.79Z"/>
    <path class="cls-1" d="M119.65,64.91v-.51c-.48.61-.98,1.11-1.51,1.52s-1.1.72-1.73.92-1.34.3-2.14.3c-.97,0-1.83-.2-2.6-.6s-1.36-.95-1.78-1.66c-.5-.85-.75-2.07-.75-3.66v-7.92c0-.8.18-1.4.54-1.79s.84-.59,1.44-.59,1.09.2,1.46.6.56,1,.56,1.79v6.4c0,.93.08,1.71.23,2.34s.44,1.12.84,1.48.96.53,1.65.53,1.31-.2,1.9-.6,1.03-.92,1.3-1.57c.22-.57.34-1.81.34-3.72v-4.86c0-.79.19-1.39.56-1.79s.85-.6,1.45-.6,1.07.2,1.44.59.54.99.54,1.79v11.59c0,.76-.17,1.33-.52,1.71s-.79.57-1.34.57-1-.2-1.36-.59-.53-.95-.53-1.66Z"/>
    <path class="cls-1" d="M131.35,61.39v3.34c0,.81-.19,1.42-.57,1.82s-.86.61-1.45.61-1.05-.21-1.42-.62-.56-1.02-.56-1.82v-11.13c0-1.8.65-2.7,1.95-2.7.66,0,1.14.21,1.44.63s.45,1.04.48,1.86c.48-.82.97-1.44,1.47-1.86s1.17-.63,2.01-.63,1.66.21,2.45.63,1.19.98,1.19,1.67c0,.49-.17.89-.51,1.21s-.7.48-1.09.48c-.15,0-.5-.09-1.06-.27s-1.06-.27-1.49-.27c-.59,0-1.06.15-1.44.46s-.66.76-.86,1.37-.35,1.33-.42,2.16-.12,1.85-.12,3.05Z"/>
    <path class="cls-1" d="M166.59,60.01c0,.68-.17,1.42-.51,2.22s-.87,1.58-1.59,2.34-1.65,1.39-2.77,1.87-2.43.72-3.93.72c-1.13,0-2.16-.11-3.09-.32s-1.77-.55-2.53-1-1.45-1.05-2.09-1.79c-.57-.67-1.05-1.43-1.45-2.26s-.7-1.73-.9-2.67-.3-1.95-.3-3.02c0-1.73.25-3.28.75-4.64s1.22-2.54,2.16-3.51,2.04-1.71,3.3-2.22,2.6-.76,4.03-.76c1.74,0,3.29.35,4.64,1.04s2.4,1.55,3.12,2.57,1.08,1.98,1.08,2.89c0,.5-.18.94-.53,1.32s-.78.57-1.27.57c-.56,0-.97-.13-1.25-.4s-.59-.72-.93-1.36c-.57-1.06-1.23-1.86-2-2.39s-1.71-.79-2.83-.79c-1.79,0-3.21.68-4.27,2.04s-1.59,3.29-1.59,5.79c0,1.67.23,3.06.7,4.17s1.13,1.94,1.99,2.48,1.87.82,3.02.82c1.25,0,2.31-.31,3.17-.93s1.52-1.53,1.96-2.73c.19-.57.42-1.03.69-1.38s.71-.53,1.32-.53c.52,0,.96.18,1.33.54s.56.81.56,1.35Z"/>
    <path class="cls-1" d="M172.25,49.04c-.56,0-1.03-.17-1.43-.51s-.59-.83-.59-1.45c0-.57.2-1.03.61-1.4s.88-.55,1.41-.55.98.17,1.38.5.6.82.6,1.45-.2,1.1-.59,1.44-.85.52-1.39.52ZM174.23,53.17v11.56c0,.8-.19,1.41-.57,1.82s-.86.62-1.45.62-1.06-.21-1.43-.63-.55-1.02-.55-1.8v-11.44c0-.79.18-1.39.55-1.79s.84-.6,1.43-.6,1.07.2,1.45.6.57.96.57,1.67Z"/>
    <path class="cls-1" d="M178.58,51.25h.44v-2.4c0-.64.02-1.15.05-1.52s.13-.68.29-.94c.16-.27.38-.5.67-.67s.62-.26.98-.26c.51,0,.97.19,1.38.57.27.25.45.56.52.93s.11.89.11,1.56v2.72h1.46c.57,0,1,.13,1.3.4s.45.61.45,1.03c0,.54-.21.91-.64,1.13s-1.03.32-1.82.32h-.75v7.35c0,.62.02,1.11.07,1.44s.16.61.35.82.5.31.93.31c.23,0,.55-.04.95-.12s.71-.12.94-.12c.32,0,.61.13.87.39s.39.58.39.96c0,.64-.35,1.14-1.05,1.48s-1.71.51-3.03.51c-1.25,0-2.2-.21-2.84-.63s-1.07-1-1.27-1.74-.3-1.73-.3-2.97v-7.68h-.53c-.58,0-1.02-.14-1.32-.41s-.45-.62-.45-1.04.16-.76.48-1.03.78-.4,1.38-.4Z"/>
    <path class="cls-1" d="M192.67,67.66l.37-.89-4.92-12.39c-.3-.71-.45-1.23-.45-1.55,0-.34.09-.66.26-.95s.42-.53.72-.7.63-.26.96-.26c.58,0,1.01.18,1.3.55s.55.89.78,1.57l3.38,9.84,3.21-9.16c.25-.74.48-1.32.69-1.74s.42-.7.65-.85.55-.22.97-.22c.3,0,.59.08.87.24s.49.38.64.65.23.56.23.86c-.04.19-.1.45-.19.79s-.2.69-.32,1.04l-5.21,13.65c-.45,1.2-.89,2.14-1.32,2.83s-1,1.21-1.71,1.57-1.66.55-2.86.55-2.05-.13-2.64-.38-.88-.72-.88-1.39c0-.46.14-.81.42-1.06s.69-.37,1.24-.37c.21,0,.42.03.63.09.25.06.47.09.66.09.46,0,.82-.07,1.08-.21s.5-.37.71-.71.45-.83.73-1.49Z"/>
    <path class="cls-1" d="M231.31,60.01c0,.68-.17,1.42-.51,2.22s-.87,1.58-1.59,2.34-1.65,1.39-2.77,1.87-2.43.72-3.93.72c-1.13,0-2.16-.11-3.09-.32s-1.77-.55-2.53-1-1.45-1.05-2.09-1.79c-.57-.67-1.05-1.43-1.45-2.26s-.7-1.73-.9-2.67-.3-1.95-.3-3.02c0-1.73.25-3.28.75-4.64s1.22-2.54,2.16-3.51,2.04-1.71,3.3-2.22,2.6-.76,4.03-.76c1.74,0,3.29.35,4.64,1.04s2.4,1.55,3.12,2.57,1.08,1.98,1.08,2.89c0,.5-.18.94-.53,1.32s-.78.57-1.27.57c-.56,0-.97-.13-1.25-.4s-.59-.72-.93-1.36c-.57-1.06-1.23-1.86-2-2.39s-1.71-.79-2.83-.79c-1.79,0-3.21.68-4.27,2.04s-1.59,3.29-1.59,5.79c0,1.67.23,3.06.7,4.17s1.13,1.94,1.99,2.48,1.87.82,3.02.82c1.25,0,2.31-.31,3.17-.93s1.52-1.53,1.96-2.73c.19-.57.42-1.03.69-1.38s.71-.53,1.32-.53c.52,0,.96.18,1.33.54s.56.81.56,1.35Z"/>
    <path class="cls-1" d="M249.91,59.03c0,1.19-.19,2.29-.56,3.3s-.91,1.87-1.61,2.59-1.54,1.28-2.52,1.66-2.08.58-3.3.58-2.3-.2-3.27-.59-1.8-.95-2.51-1.68-1.25-1.59-1.61-2.58-.55-2.09-.55-3.29.19-2.32.56-3.33.9-1.87,1.6-2.58,1.53-1.26,2.52-1.65,2.08-.58,3.27-.58,2.31.2,3.3.59,1.83.95,2.53,1.67,1.24,1.58,1.6,2.58.55,2.09.55,3.3ZM245.9,59.03c0-1.63-.36-2.9-1.08-3.81s-1.68-1.36-2.89-1.36c-.78,0-1.47.2-2.07.61s-1.05,1-1.38,1.79-.48,1.71-.48,2.77.16,1.96.48,2.74.77,1.38,1.36,1.79,1.29.62,2.09.62c1.21,0,2.17-.46,2.89-1.37s1.08-2.18,1.08-3.79Z"/>
    <path class="cls-1" d="M263.45,64.91v-.51c-.48.61-.98,1.11-1.51,1.52s-1.1.72-1.73.92-1.34.3-2.14.3c-.97,0-1.83-.2-2.6-.6s-1.36-.95-1.78-1.66c-.5-.85-.75-2.07-.75-3.66v-7.92c0-.8.18-1.4.54-1.79s.84-.59,1.44-.59,1.09.2,1.46.6.56,1,.56,1.79v6.4c0,.93.08,1.71.23,2.34s.44,1.12.84,1.48.96.53,1.65.53,1.31-.2,1.9-.6,1.03-.92,1.3-1.57c.22-.57.34-1.81.34-3.72v-4.86c0-.79.19-1.39.56-1.79s.85-.6,1.45-.6,1.07.2,1.44.59.54.99.54,1.79v11.59c0,.76-.17,1.33-.52,1.71s-.79.57-1.34.57-1-.2-1.36-.59-.53-.95-.53-1.66Z"/>
    <path class="cls-1" d="M274.82,53.11v.48c.7-.93,1.47-1.61,2.31-2.04s1.79-.65,2.88-.65,2,.23,2.83.69,1.45,1.11,1.86,1.95c.26.49.43,1.02.51,1.58s.12,1.29.12,2.17v7.44c0,.8-.18,1.41-.55,1.82s-.84.62-1.43.62-1.08-.21-1.45-.63-.56-1.02-.56-1.8v-6.67c0-1.32-.18-2.33-.55-3.02s-1.1-1.05-2.19-1.05c-.71,0-1.36.21-1.95.64s-1.02,1.01-1.29,1.75c-.2.6-.29,1.71-.29,3.34v5.01c0,.81-.19,1.42-.56,1.82s-.86.61-1.46.61-1.05-.21-1.42-.63-.56-1.02-.56-1.8v-11.56c0-.76.17-1.33.5-1.71s.79-.56,1.36-.56c.35,0,.67.08.95.25s.51.42.68.75.26.74.26,1.22Z"/>
    <path class="cls-1" d="M303.64,62.21c0,.5-.15,1.03-.45,1.6s-.75,1.11-1.36,1.62-1.38.93-2.31,1.24-1.97.47-3.13.47c-2.47,0-4.4-.72-5.79-2.16s-2.08-3.37-2.08-5.79c0-1.64.32-3.09.95-4.35s1.55-2.23,2.75-2.92,2.64-1.03,4.31-1.03c1.04,0,1.98.15,2.85.45s1.6.69,2.2,1.17,1.06.99,1.38,1.53.48,1.05.48,1.52-.18.88-.54,1.22-.79.5-1.3.5c-.33,0-.61-.09-.83-.26s-.47-.45-.74-.83c-.49-.74-1-1.3-1.53-1.67s-1.21-.56-2.03-.56c-1.18,0-2.13.46-2.86,1.38s-1.08,2.19-1.08,3.79c0,.75.09,1.44.28,2.07s.45,1.17.81,1.61.78.78,1.27,1.01,1.04.34,1.64.34c.8,0,1.49-.19,2.06-.56s1.08-.94,1.52-1.7c.24-.45.51-.8.79-1.05s.63-.38,1.04-.38c.49,0,.89.19,1.22.56s.48.77.48,1.19Z"/>
    <path class="cls-1" d="M309.15,49.04c-.56,0-1.03-.17-1.43-.51s-.59-.83-.59-1.45c0-.57.2-1.03.61-1.4s.88-.55,1.41-.55.98.17,1.38.5.6.82.6,1.45-.2,1.1-.59,1.44-.85.52-1.39.52ZM311.13,53.17v11.56c0,.8-.19,1.41-.57,1.82s-.86.62-1.45.62-1.06-.21-1.43-.63-.55-1.02-.55-1.8v-11.44c0-.79.18-1.39.55-1.79s.84-.6,1.43-.6,1.07.2,1.45.6.57.96.57,1.67Z"/>
    <path class="cls-1" d="M315.26,64.73v-17.34c0-.8.18-1.41.53-1.82s.84-.62,1.44-.62,1.09.2,1.46.61.56,1.01.56,1.82v17.34c0,.81-.19,1.42-.56,1.82s-.86.61-1.46.61-1.06-.21-1.43-.63-.55-1.02-.55-1.8Z"/>
    <path class="cls-1" d="M333.86,45.32h5.67c1.47,0,2.74.14,3.79.41s2.01.79,2.87,1.54c2.24,1.91,3.35,4.82,3.35,8.73,0,1.29-.11,2.47-.34,3.53s-.57,2.02-1.04,2.88-1.07,1.62-1.8,2.29c-.58.52-1.21.93-1.89,1.25s-1.42.53-2.21.66-1.67.19-2.66.19h-5.67c-.79,0-1.39-.12-1.79-.36s-.66-.58-.78-1.01-.18-1-.18-1.69v-15.75c0-.94.21-1.62.63-2.04s1.1-.63,2.04-.63ZM335.55,48.76v14.58h3.3c.72,0,1.29-.02,1.7-.06s.83-.14,1.27-.29.82-.38,1.14-.66c1.46-1.23,2.18-3.35,2.18-6.36,0-2.12-.32-3.71-.96-4.76s-1.43-1.73-2.37-2.01-2.07-.43-3.4-.43h-2.87Z"/>
    <path class="cls-1" d="M355.12,49.04c-.56,0-1.03-.17-1.43-.51s-.59-.83-.59-1.45c0-.57.2-1.03.61-1.4s.88-.55,1.41-.55.98.17,1.38.5.6.82.6,1.45-.2,1.1-.59,1.44-.85.52-1.39.52ZM357.1,53.17v11.56c0,.8-.19,1.41-.57,1.82s-.86.62-1.45.62-1.06-.21-1.43-.63-.55-1.02-.55-1.8v-11.44c0-.79.18-1.39.55-1.79s.84-.6,1.43-.6,1.07.2,1.45.6.57.96.57,1.67Z"/>
    <path class="cls-1" d="M374.1,61.93c0,1.1-.27,2.05-.81,2.83s-1.33,1.38-2.38,1.79-2.33.61-3.83.61-2.67-.22-3.69-.66-1.78-.99-2.27-1.65-.73-1.32-.73-1.98c0-.44.16-.82.47-1.13s.71-.47,1.19-.47c.42,0,.74.1.97.31s.44.49.64.86c.41.71.9,1.25,1.47,1.6s1.35.53,2.34.53c.8,0,1.46-.18,1.97-.53s.77-.76.77-1.22c0-.7-.27-1.22-.8-1.54s-1.41-.63-2.63-.92c-1.38-.34-2.5-.7-3.36-1.08s-1.55-.87-2.07-1.49-.78-1.37-.78-2.27c0-.8.24-1.56.72-2.27s1.18-1.28,2.12-1.71,2.06-.64,3.38-.64c1.04,0,1.96.11,2.79.32s1.51.5,2.07.86.97.76,1.26,1.2.43.87.43,1.29c0,.46-.15.83-.46,1.13s-.74.44-1.31.44c-.41,0-.76-.12-1.05-.35s-.62-.59-.99-1.05c-.3-.39-.66-.7-1.07-.94s-.97-.35-1.67-.35-1.32.15-1.8.46-.72.69-.72,1.15c0,.42.18.76.53,1.03s.83.49,1.42.67,1.42.39,2.46.64c1.24.3,2.25.66,3.04,1.08s1.38.92,1.79,1.49.61,1.22.61,1.96Z"/>
    <path class="cls-1" d="M377.71,51.25h.44v-2.4c0-.64.02-1.15.05-1.52s.13-.68.29-.94c.16-.27.38-.5.67-.67s.62-.26.98-.26c.51,0,.97.19,1.38.57.27.25.45.56.52.93s.11.89.11,1.56v2.72h1.46c.57,0,1,.13,1.3.4s.45.61.45,1.03c0,.54-.21.91-.64,1.13s-1.03.32-1.82.32h-.75v7.35c0,.62.02,1.11.07,1.44s.16.61.35.82.5.31.93.31c.23,0,.55-.04.95-.12s.71-.12.94-.12c.32,0,.61.13.87.39s.39.58.39.96c0,.64-.35,1.14-1.05,1.48s-1.71.51-3.03.51c-1.25,0-2.2-.21-2.84-.63s-1.07-1-1.27-1.74-.3-1.73-.3-2.97v-7.68h-.53c-.58,0-1.02-.14-1.32-.41s-.45-.62-.45-1.04.16-.76.48-1.03.78-.4,1.38-.4Z"/>
    <path class="cls-1" d="M392.08,61.39v3.34c0,.81-.19,1.42-.57,1.82s-.86.61-1.45.61-1.05-.21-1.42-.62-.56-1.02-.56-1.82v-11.13c0-1.8.65-2.7,1.95-2.7.66,0,1.14.21,1.44.63s.45,1.04.48,1.86c.48-.82.97-1.44,1.47-1.86s1.17-.63,2.01-.63,1.66.21,2.45.63,1.19.98,1.19,1.67c0,.49-.17.89-.51,1.21s-.7.48-1.09.48c-.15,0-.5-.09-1.06-.27s-1.06-.27-1.49-.27c-.59,0-1.06.15-1.44.46s-.66.76-.86,1.37-.35,1.33-.42,2.16-.12,1.85-.12,3.05Z"/>
    <path class="cls-1" d="M403.27,49.04c-.56,0-1.03-.17-1.43-.51s-.59-.83-.59-1.45c0-.57.2-1.03.61-1.4s.88-.55,1.41-.55.98.17,1.38.5.6.82.6,1.45-.2,1.1-.59,1.44-.85.52-1.39.52ZM405.25,53.17v11.56c0,.8-.19,1.41-.57,1.82s-.86.62-1.45.62-1.06-.21-1.43-.63-.55-1.02-.55-1.8v-11.44c0-.79.18-1.39.55-1.79s.84-.6,1.43-.6,1.07.2,1.45.6.57.96.57,1.67Z"/>
    <path class="cls-1" d="M423.72,62.21c0,.5-.15,1.03-.45,1.6s-.75,1.11-1.36,1.62-1.38.93-2.31,1.24-1.97.47-3.13.47c-2.47,0-4.4-.72-5.79-2.16s-2.08-3.37-2.08-5.79c0-1.64.32-3.09.95-4.35s1.55-2.23,2.75-2.92,2.64-1.03,4.31-1.03c1.04,0,1.98.15,2.85.45s1.6.69,2.2,1.17,1.06.99,1.38,1.53.48,1.05.48,1.52-.18.88-.54,1.22-.79.5-1.3.5c-.33,0-.61-.09-.83-.26s-.47-.45-.74-.83c-.49-.74-1-1.3-1.53-1.67s-1.21-.56-2.03-.56c-1.18,0-2.13.46-2.86,1.38s-1.08,2.19-1.08,3.79c0,.75.09,1.44.28,2.07s.45,1.17.81,1.61.78.78,1.27,1.01,1.04.34,1.64.34c.8,0,1.49-.19,2.06-.56s1.08-.94,1.52-1.7c.24-.45.51-.8.79-1.05s.63-.38,1.04-.38c.49,0,.89.19,1.22.56s.48.77.48,1.19Z"/>
    <path class="cls-1" d="M427.42,51.25h.44v-2.4c0-.64.02-1.15.05-1.52s.13-.68.29-.94c.16-.27.38-.5.67-.67s.62-.26.98-.26c.51,0,.97.19,1.38.57.27.25.45.56.52.93.07.37.11.89.11,1.56v2.72h1.46c.57,0,1,.13,1.3.4s.45.61.45,1.03c0,.54-.21.91-.64,1.13-.43.21-1.03.32-1.82.32h-.75v7.35c0,.62.02,1.11.07,1.44.04.34.16.61.35.82.19.21.5.31.93.31.23,0,.55-.04.95-.12s.71-.12.94-.12c.32,0,.61.13.87.39s.39.58.39.96c0,.64-.35,1.14-1.05,1.48s-1.71.51-3.03.51c-1.25,0-2.2-.21-2.84-.63s-1.07-1-1.27-1.74c-.2-.74-.3-1.73-.3-2.97v-7.68h-.53c-.58,0-1.02-.14-1.32-.41s-.45-.62-.45-1.04.16-.76.48-1.03.78-.4,1.38-.4Z"/>
    <path class="cls-1" d="M450.7,61.93c0,1.1-.27,2.05-.81,2.83s-1.33,1.38-2.38,1.79c-1.05.41-2.33.61-3.83.61s-2.67-.22-3.69-.66-1.78-.99-2.27-1.65-.73-1.32-.73-1.98c0-.44.16-.82.47-1.13s.71-.47,1.19-.47c.42,0,.74.1.97.31s.44.49.64.86c.41.71.9,1.25,1.47,1.6.57.35,1.35.53,2.34.53.8,0,1.46-.18,1.97-.53.51-.36.77-.76.77-1.22,0-.7-.27-1.22-.8-1.54s-1.41-.63-2.63-.92c-1.38-.34-2.5-.7-3.36-1.08-.87-.38-1.56-.87-2.07-1.49s-.78-1.37-.78-2.27c0-.8.24-1.56.72-2.27s1.18-1.28,2.12-1.71,2.06-.64,3.38-.64c1.04,0,1.96.11,2.79.32.82.21,1.51.5,2.06.86s.97.76,1.26,1.2.43.87.43,1.29c0,.46-.15.83-.46,1.13-.31.29-.74.44-1.31.44-.41,0-.76-.12-1.05-.35-.29-.23-.62-.59-.99-1.05-.3-.39-.66-.7-1.07-.94s-.97-.35-1.67-.35-1.32.15-1.8.46-.72.69-.72,1.15c0,.42.18.76.53,1.03s.83.49,1.42.67,1.42.39,2.46.64c1.24.3,2.25.66,3.04,1.08.79.42,1.38.92,1.79,1.49.4.57.61,1.22.61,1.96Z"/>
    <path class="cls-1" d="M463.61,49.04c-.56,0-1.03-.17-1.43-.51-.39-.34-.59-.83-.59-1.45,0-.57.2-1.03.61-1.4.4-.37.88-.55,1.41-.55s.98.17,1.38.5.6.82.6,1.45-.2,1.1-.59,1.44-.85.52-1.39.52ZM465.58,53.17v11.56c0,.8-.19,1.41-.57,1.82s-.86.62-1.45.62-1.06-.21-1.43-.63c-.37-.42-.55-1.02-.55-1.8v-11.44c0-.79.18-1.39.55-1.79.37-.4.84-.6,1.43-.6s1.07.2,1.45.6.57.96.57,1.67Z"/>
    <path class="cls-1" d="M473.35,53.11v.48c.7-.93,1.47-1.61,2.31-2.04.83-.43,1.79-.65,2.88-.65s2,.23,2.83.69,1.45,1.11,1.86,1.95c.26.49.43,1.02.51,1.58s.12,1.29.12,2.17v7.44c0,.8-.18,1.41-.55,1.82-.37.41-.84.62-1.43.62s-1.08-.21-1.45-.63-.56-1.02-.56-1.8v-6.67c0-1.32-.18-2.33-.55-3.02-.37-.7-1.1-1.05-2.19-1.05-.71,0-1.36.21-1.95.64s-1.02,1.01-1.29,1.75c-.2.6-.29,1.71-.29,3.34v5.01c0,.81-.19,1.42-.56,1.82s-.86.61-1.46.61-1.05-.21-1.42-.63-.56-1.02-.56-1.8v-11.56c0-.76.17-1.33.5-1.71s.79-.56,1.36-.56c.35,0,.67.08.95.25s.51.42.68.75.26.74.26,1.22Z"/>
    <path class="cls-1" d="M495.55,51.25h.44v-2.4c0-.64.02-1.15.05-1.52s.13-.68.29-.94c.16-.27.38-.5.67-.67s.62-.26.98-.26c.51,0,.97.19,1.38.57.27.25.45.56.52.93.07.37.11.89.11,1.56v2.72h1.46c.57,0,1,.13,1.3.4s.45.61.45,1.03c0,.54-.21.91-.64,1.13-.43.21-1.03.32-1.82.32h-.75v7.35c0,.62.02,1.11.07,1.44.04.34.16.61.35.82.19.21.5.31.93.31.23,0,.55-.04.95-.12s.71-.12.94-.12c.32,0,.61.13.87.39s.39.58.39.96c0,.64-.35,1.14-1.05,1.48s-1.71.51-3.03.51c-1.25,0-2.2-.21-2.84-.63s-1.07-1-1.27-1.74c-.2-.74-.3-1.73-.3-2.97v-7.68h-.53c-.58,0-1.02-.14-1.32-.41s-.45-.62-.45-1.04.16-.76.48-1.03.78-.4,1.38-.4Z"/>
    <path class="cls-1" d="M509.86,47.39v5.93c.51-.59,1-1.05,1.49-1.39.48-.34,1.02-.6,1.6-.77s1.22-.26,1.89-.26c1.02,0,1.92.21,2.7.64.79.43,1.4,1.05,1.85,1.88.28.48.47,1.01.57,1.6s.15,1.27.15,2.04v7.66c0,.8-.18,1.41-.55,1.82-.37.41-.85.62-1.46.62-1.32,0-1.98-.81-1.98-2.43v-6.75c0-1.28-.19-2.26-.57-2.95s-1.1-1.03-2.17-1.03c-.71,0-1.35.2-1.93.61-.57.41-1,.96-1.28,1.66-.21.6-.32,1.66-.32,3.18v5.29c0,.79-.18,1.39-.54,1.81s-.85.62-1.49.62c-1.32,0-1.98-.81-1.98-2.43v-17.34c0-.81.17-1.42.52-1.82.35-.41.83-.61,1.46-.61s1.13.21,1.49.62.54,1.02.54,1.82Z"/>
    <path class="cls-1" d="M535.24,60.01h-7.82c0,.91.19,1.71.55,2.4.36.69.83,1.22,1.42,1.57s1.24.53,1.96.53c.48,0,.92-.06,1.31-.17.39-.11.78-.29,1.15-.53s.71-.5,1.03-.77.72-.64,1.22-1.11c.21-.18.5-.26.88-.26.41,0,.74.11,1,.34s.38.54.38.95c0,.36-.14.78-.42,1.27s-.71.95-1.28,1.39c-.57.44-1.29.81-2.15,1.11-.87.29-1.86.44-2.98.44-2.57,0-4.57-.73-5.99-2.2s-2.14-3.45-2.14-5.96c0-1.18.18-2.28.53-3.29s.86-1.88,1.54-2.6,1.5-1.28,2.49-1.66,2.08-.58,3.28-.58c1.56,0,2.9.33,4.02.99s1.96,1.51,2.51,2.56.83,2.11.83,3.19c0,1.01-.29,1.66-.86,1.96s-1.39.45-2.43.45ZM527.41,57.74h7.25c-.1-1.37-.47-2.39-1.11-3.07-.64-.68-1.48-1.02-2.53-1.02s-1.81.34-2.45,1.03c-.64.69-1.03,1.71-1.17,3.05Z"/>
    <path class="cls-1" d="M558.85,66.8h-6.56c-.95,0-1.62-.21-2.03-.64s-.61-1.1-.61-2.03v-16.14c0-.95.21-1.63.62-2.04.41-.42,1.09-.62,2.01-.62h6.96c1.03,0,1.91.06,2.67.19s1.43.37,2.02.73c.51.3.96.69,1.35,1.15s.69.98.89,1.54.31,1.15.31,1.78c0,2.15-1.07,3.72-3.22,4.72,2.82.9,4.23,2.65,4.23,5.24,0,1.2-.31,2.28-.92,3.24s-1.45,1.67-2.49,2.13c-.65.27-1.41.47-2.26.58s-1.84.17-2.97.17ZM554,48.59v5.55h3.98c1.08,0,1.92-.1,2.51-.31.59-.21,1.04-.6,1.35-1.17.24-.41.37-.87.37-1.38,0-1.08-.39-1.8-1.16-2.16s-1.95-.53-3.53-.53h-3.53ZM558.53,57.26h-4.53v6.27h4.67c2.94,0,4.41-1.06,4.41-3.18,0-1.08-.38-1.87-1.14-2.36s-1.9-.73-3.41-.73Z"/>
    <path class="cls-1" d="M574.95,61.39v3.34c0,.81-.19,1.42-.57,1.82s-.86.61-1.45.61-1.05-.21-1.42-.62-.56-1.02-.56-1.82v-11.13c0-1.8.65-2.7,1.95-2.7.66,0,1.14.21,1.44.63s.45,1.04.48,1.86c.48-.82.97-1.44,1.47-1.86s1.17-.63,2.01-.63,1.66.21,2.45.63,1.19.98,1.19,1.67c0,.49-.17.89-.5,1.21-.34.32-.7.48-1.09.48-.15,0-.5-.09-1.06-.27s-1.06-.27-1.49-.27c-.59,0-1.06.15-1.44.46s-.66.76-.86,1.37-.35,1.33-.42,2.16-.12,1.85-.12,3.05Z"/>
    <path class="cls-1" d="M597.95,59.03c0,1.19-.19,2.29-.56,3.3s-.91,1.87-1.61,2.59-1.54,1.28-2.52,1.66-2.08.58-3.3.58-2.3-.2-3.27-.59-1.8-.95-2.51-1.68-1.24-1.59-1.61-2.58c-.37-.99-.55-2.09-.55-3.29s.19-2.32.56-3.33.9-1.87,1.6-2.58,1.53-1.26,2.52-1.65,2.08-.58,3.27-.58,2.31.2,3.3.59,1.83.95,2.53,1.67,1.24,1.58,1.6,2.58c.37,1,.55,2.09.55,3.3ZM593.93,59.03c0-1.63-.36-2.9-1.08-3.81-.72-.91-1.68-1.36-2.89-1.36-.78,0-1.47.2-2.07.61s-1.05,1-1.38,1.79-.48,1.71-.48,2.77.16,1.96.48,2.74c.32.78.77,1.38,1.36,1.79s1.29.62,2.09.62c1.21,0,2.18-.46,2.89-1.37.72-.91,1.08-2.18,1.08-3.79Z"/>
    <path class="cls-1" d="M604.73,53.11v.48c.7-.93,1.47-1.61,2.31-2.04.83-.43,1.79-.65,2.88-.65s2,.23,2.83.69,1.45,1.11,1.86,1.95c.26.49.43,1.02.51,1.58s.12,1.29.12,2.17v7.44c0,.8-.18,1.41-.55,1.82-.37.41-.84.62-1.43.62s-1.08-.21-1.45-.63-.56-1.02-.56-1.8v-6.67c0-1.32-.18-2.33-.55-3.02-.37-.7-1.1-1.05-2.19-1.05-.71,0-1.36.21-1.95.64s-1.02,1.01-1.29,1.75c-.2.6-.29,1.71-.29,3.34v5.01c0,.81-.19,1.42-.56,1.82s-.86.61-1.46.61-1.05-.21-1.42-.63-.56-1.02-.56-1.8v-11.56c0-.76.17-1.33.5-1.71s.79-.56,1.36-.56c.35,0,.67.08.95.25s.51.42.68.75.26.74.26,1.22Z"/>
    <path class="cls-1" d="M627.89,65.51l-2.9-4.26-2.97,4.26c-.43.6-.79,1.02-1.09,1.27s-.68.38-1.13.38c-.51,0-.94-.16-1.3-.48s-.53-.68-.53-1.09.27-1.02.82-1.8l3.62-5.19-3.21-4.32c-.56-.71-.83-1.33-.83-1.86,0-.41.17-.77.5-1.07s.77-.45,1.3-.45c.47,0,.86.13,1.17.4.31.26.67.68,1.08,1.25l2.59,3.54,2.52-3.54c.42-.59.78-1.01,1.09-1.26.31-.25.69-.38,1.15-.38.53,0,.96.15,1.31.45s.52.66.52,1.08c0,.3-.07.59-.21.87-.14.28-.36.61-.65.99l-3.21,4.32,3.62,5.19c.57.81.85,1.42.85,1.83s-.18.78-.53,1.08-.79.45-1.3.45c-.46,0-.85-.13-1.17-.4s-.68-.68-1.09-1.26Z"/>
    <path class="cls-1" d="M92.74,96.01c0,.68-.17,1.42-.51,2.22s-.87,1.58-1.59,2.34c-.72.77-1.65,1.39-2.77,1.87s-2.43.72-3.93.72c-1.13,0-2.16-.11-3.09-.32s-1.77-.55-2.53-1c-.76-.45-1.45-1.05-2.09-1.79-.57-.67-1.05-1.43-1.45-2.26s-.7-1.73-.9-2.67-.3-1.95-.3-3.02c0-1.73.25-3.28.75-4.64s1.22-2.54,2.16-3.51,2.04-1.71,3.3-2.22,2.6-.76,4.03-.76c1.74,0,3.29.35,4.64,1.04s2.4,1.55,3.12,2.57,1.08,1.98,1.08,2.89c0,.5-.18.94-.53,1.32s-.78.57-1.27.57c-.56,0-.97-.13-1.25-.4s-.59-.72-.93-1.36c-.57-1.06-1.23-1.86-2-2.39s-1.71-.79-2.83-.79c-1.79,0-3.21.68-4.27,2.04s-1.59,3.29-1.59,5.79c0,1.67.23,3.06.7,4.17s1.13,1.94,1.99,2.48,1.87.82,3.02.82c1.25,0,2.31-.31,3.17-.93s1.52-1.53,1.96-2.73c.19-.57.42-1.03.69-1.38s.71-.53,1.32-.53c.52,0,.96.18,1.33.54s.56.81.56,1.35Z"/>
    <path class="cls-1" d="M111.34,95.03c0,1.19-.19,2.29-.56,3.3s-.91,1.87-1.61,2.59-1.54,1.28-2.52,1.66c-.98.38-2.08.58-3.3.58s-2.3-.2-3.27-.59-1.8-.95-2.51-1.68c-.71-.73-1.25-1.59-1.61-2.58s-.55-2.09-.55-3.29.19-2.32.56-3.33.9-1.87,1.6-2.58,1.53-1.26,2.52-1.65,2.08-.58,3.27-.58,2.31.2,3.3.59,1.83.95,2.53,1.67,1.24,1.58,1.6,2.58.55,2.09.55,3.3ZM107.33,95.03c0-1.63-.36-2.9-1.08-3.81s-1.68-1.36-2.89-1.36c-.78,0-1.47.2-2.07.61s-1.05,1-1.38,1.79-.48,1.71-.48,2.77.16,1.96.48,2.74.77,1.38,1.36,1.79,1.29.62,2.09.62c1.21,0,2.17-.46,2.89-1.37s1.08-2.18,1.08-3.79Z"/>
    <path class="cls-1" d="M118.12,89.11v.48c.7-.93,1.47-1.61,2.31-2.04s1.79-.65,2.88-.65,2,.23,2.83.69,1.45,1.11,1.86,1.95c.26.49.43,1.02.51,1.58s.12,1.29.12,2.17v7.44c0,.8-.18,1.41-.55,1.82s-.84.62-1.43.62-1.08-.21-1.45-.63-.56-1.02-.56-1.8v-6.67c0-1.32-.18-2.33-.55-3.02s-1.1-1.05-2.19-1.05c-.71,0-1.36.21-1.95.64s-1.02,1.01-1.29,1.75c-.2.6-.29,1.71-.29,3.34v5.01c0,.81-.19,1.42-.56,1.82-.38.4-.86.61-1.46.61s-1.05-.21-1.42-.63-.56-1.02-.56-1.8v-11.56c0-.76.17-1.33.5-1.71s.79-.56,1.36-.56c.35,0,.67.08.95.25s.51.42.68.75.26.74.26,1.22Z"/>
    <path class="cls-1" d="M145.49,97.93c0,1.1-.27,2.05-.81,2.83-.54.79-1.33,1.38-2.38,1.79-1.05.4-2.33.61-3.83.61s-2.67-.22-3.69-.66-1.78-.99-2.27-1.65c-.49-.66-.73-1.32-.73-1.98,0-.44.16-.82.47-1.13s.71-.47,1.19-.47c.42,0,.74.1.97.31s.44.49.64.86c.41.71.9,1.25,1.47,1.6s1.35.53,2.34.53c.8,0,1.46-.18,1.97-.53s.77-.76.77-1.22c0-.7-.27-1.22-.8-1.54s-1.41-.63-2.63-.92c-1.38-.34-2.5-.7-3.36-1.08s-1.55-.87-2.07-1.49-.78-1.37-.78-2.27c0-.8.24-1.56.72-2.27s1.18-1.28,2.12-1.71,2.06-.64,3.38-.64c1.04,0,1.96.11,2.79.32s1.51.5,2.07.86.97.76,1.26,1.2.43.87.43,1.29c0,.46-.15.83-.46,1.13s-.74.44-1.31.44c-.41,0-.76-.12-1.05-.35s-.62-.59-.99-1.05c-.3-.39-.66-.7-1.07-.94s-.97-.35-1.67-.35-1.32.15-1.8.46-.72.69-.72,1.15c0,.42.18.76.53,1.03s.83.49,1.42.67,1.42.39,2.46.64c1.24.3,2.25.66,3.04,1.08s1.38.92,1.79,1.49.61,1.22.61,1.96Z"/>
    <path class="cls-1" d="M150.89,85.04c-.56,0-1.03-.17-1.43-.51s-.59-.83-.59-1.45c0-.57.2-1.03.61-1.4s.88-.55,1.41-.55.98.17,1.38.5.6.82.6,1.45-.2,1.1-.59,1.44-.85.52-1.39.52ZM152.87,89.17v11.56c0,.8-.19,1.41-.57,1.82s-.86.62-1.45.62-1.06-.21-1.43-.63-.55-1.02-.55-1.8v-11.44c0-.79.18-1.39.55-1.79s.84-.6,1.43-.6,1.07.2,1.45.6.57.96.57,1.67Z"/>
    <path class="cls-1" d="M169.87,97.93c0,1.1-.27,2.05-.81,2.83-.54.79-1.33,1.38-2.38,1.79-1.05.4-2.33.61-3.83.61s-2.67-.22-3.69-.66-1.78-.99-2.27-1.65c-.49-.66-.73-1.32-.73-1.98,0-.44.16-.82.47-1.13s.71-.47,1.19-.47c.42,0,.74.1.97.31s.44.49.64.86c.41.71.9,1.25,1.47,1.6s1.35.53,2.34.53c.8,0,1.46-.18,1.97-.53s.77-.76.77-1.22c0-.7-.27-1.22-.8-1.54s-1.41-.63-2.63-.92c-1.38-.34-2.5-.7-3.36-1.08s-1.55-.87-2.07-1.49-.78-1.37-.78-2.27c0-.8.24-1.56.72-2.27s1.18-1.28,2.12-1.71,2.06-.64,3.38-.64c1.04,0,1.96.11,2.79.32s1.51.5,2.07.86.97.76,1.26,1.2.43.87.43,1.29c0,.46-.15.83-.46,1.13s-.74.44-1.31.44c-.41,0-.76-.12-1.05-.35s-.62-.59-.99-1.05c-.3-.39-.66-.7-1.07-.94s-.97-.35-1.67-.35-1.32.15-1.8.46-.72.69-.72,1.15c0,.42.18.76.53,1.03s.83.49,1.42.67,1.42.39,2.46.64c1.24.3,2.25.66,3.04,1.08s1.38.92,1.79,1.49.61,1.22.61,1.96Z"/>
    <path class="cls-1" d="M173.48,87.25h.44v-2.4c0-.64.02-1.15.05-1.52s.13-.68.29-.94c.16-.27.38-.5.67-.67s.62-.26.98-.26c.51,0,.97.19,1.38.57.27.25.45.56.52.93s.11.89.11,1.56v2.72h1.46c.57,0,1,.13,1.3.4s.45.61.45,1.03c0,.54-.21.91-.64,1.13s-1.03.32-1.82.32h-.75v7.35c0,.62.02,1.11.07,1.44s.16.61.35.82.5.31.93.31c.23,0,.55-.04.95-.12s.71-.12.94-.12c.32,0,.61.13.87.39s.39.58.39.96c0,.64-.35,1.14-1.05,1.48s-1.71.51-3.03.51c-1.25,0-2.2-.21-2.84-.63s-1.07-1-1.27-1.74-.3-1.73-.3-2.97v-7.68h-.53c-.58,0-1.02-.14-1.32-.41s-.45-.62-.45-1.04.16-.76.48-1.03.78-.4,1.38-.4Z"/>
    <path class="cls-1" d="M195.04,96.01h-7.82c0,.91.19,1.71.55,2.4s.83,1.22,1.42,1.57,1.24.53,1.96.53c.48,0,.92-.06,1.31-.17s.78-.29,1.15-.53.71-.5,1.03-.77.72-.64,1.22-1.11c.21-.18.5-.26.88-.26.41,0,.74.11,1,.34s.38.54.38.95c0,.36-.14.78-.42,1.27s-.71.95-1.28,1.39c-.57.44-1.29.81-2.15,1.11s-1.86.44-2.98.44c-2.57,0-4.57-.73-5.99-2.2s-2.14-3.45-2.14-5.96c0-1.18.18-2.28.53-3.29s.86-1.88,1.54-2.6,1.5-1.28,2.49-1.66,2.08-.58,3.28-.58c1.56,0,2.9.33,4.02.99s1.96,1.51,2.51,2.56.83,2.11.83,3.19c0,1.01-.29,1.66-.86,1.96s-1.39.45-2.43.45ZM187.22,93.74h7.25c-.1-1.37-.47-2.39-1.11-3.07s-1.48-1.02-2.53-1.02-1.81.34-2.45,1.03-1.03,1.71-1.16,3.05Z"/>
    <path class="cls-1" d="M205.34,89.11v.48c.7-.93,1.47-1.61,2.31-2.04s1.79-.65,2.88-.65,2,.23,2.83.69,1.45,1.11,1.86,1.95c.26.49.43,1.02.51,1.58s.12,1.29.12,2.17v7.44c0,.8-.18,1.41-.55,1.82s-.84.62-1.43.62-1.08-.21-1.45-.63-.56-1.02-.56-1.8v-6.67c0-1.32-.18-2.33-.55-3.02s-1.1-1.05-2.19-1.05c-.71,0-1.36.21-1.95.64s-1.02,1.01-1.29,1.75c-.2.6-.29,1.71-.29,3.34v5.01c0,.81-.19,1.42-.56,1.82-.38.4-.86.61-1.46.61s-1.05-.21-1.42-.63-.56-1.02-.56-1.8v-11.56c0-.76.17-1.33.5-1.71s.79-.56,1.36-.56c.35,0,.67.08.95.25s.51.42.68.75.26.74.26,1.22Z"/>
    <path class="cls-1" d="M220.05,87.25h.44v-2.4c0-.64.02-1.15.05-1.52s.13-.68.29-.94c.16-.27.38-.5.67-.67s.62-.26.98-.26c.51,0,.97.19,1.38.57.27.25.45.56.52.93s.11.89.11,1.56v2.72h1.46c.57,0,1,.13,1.3.4s.45.61.45,1.03c0,.54-.21.91-.64,1.13s-1.03.32-1.82.32h-.75v7.35c0,.62.02,1.11.07,1.44s.16.61.35.82.5.31.93.31c.23,0,.55-.04.95-.12s.71-.12.94-.12c.32,0,.61.13.87.39s.39.58.39.96c0,.64-.35,1.14-1.05,1.48s-1.71.51-3.03.51c-1.25,0-2.2-.21-2.84-.63s-1.07-1-1.27-1.74-.3-1.73-.3-2.97v-7.68h-.53c-.58,0-1.02-.14-1.32-.41s-.45-.62-.45-1.04.16-.76.48-1.03.78-.4,1.38-.4Z"/>
    <path class="cls-1" d="M230.45,100.73v-17.34c0-.8.18-1.41.53-1.82s.84-.62,1.44-.62,1.09.2,1.46.61.56,1.01.56,1.82v17.34c0,.81-.19,1.42-.56,1.82-.38.4-.86.61-1.46.61s-1.06-.21-1.43-.63-.55-1.02-.55-1.8Z"/>
    <path class="cls-1" d="M242.27,103.66l.37-.89-4.92-12.39c-.3-.71-.45-1.23-.45-1.55,0-.34.09-.66.26-.95s.42-.53.72-.7.63-.26.96-.26c.58,0,1.01.18,1.3.55s.55.89.78,1.57l3.38,9.84,3.21-9.16c.25-.74.48-1.32.69-1.74s.42-.7.65-.85.55-.22.97-.22c.3,0,.59.08.87.24s.49.38.64.65.23.56.23.86c-.04.19-.1.45-.19.79s-.2.69-.32,1.04l-5.21,13.65c-.45,1.2-.89,2.14-1.32,2.83s-1,1.21-1.71,1.57c-.71.37-1.66.55-2.86.55s-2.05-.13-2.64-.38-.88-.72-.88-1.39c0-.46.14-.81.42-1.06.28-.25.69-.37,1.24-.37.21,0,.42.03.63.09.25.06.47.09.66.09.46,0,.82-.07,1.08-.21s.5-.37.71-.71c.21-.34.45-.83.73-1.49Z"/>
    <path class="cls-1" d="M278.93,96.35c0,1.3-.33,2.47-1,3.5s-1.65,1.85-2.94,2.43-2.82.88-4.58.88c-2.12,0-3.87-.4-5.24-1.2-.98-.58-1.77-1.35-2.38-2.31s-.92-1.9-.92-2.81c0-.53.18-.98.55-1.35s.83-.56,1.4-.56c.46,0,.85.15,1.16.44s.59.73.81,1.3c.27.68.57,1.25.89,1.71s.76.84,1.34,1.14,1.33.45,2.27.45c1.29,0,2.34-.3,3.14-.9s1.21-1.35,1.21-2.25c0-.71-.22-1.29-.65-1.74s-1-.78-1.68-1.02-1.61-.48-2.76-.75c-1.54-.36-2.83-.78-3.88-1.27s-1.87-1.14-2.48-1.98-.92-1.87-.92-3.11.32-2.23.97-3.15,1.58-1.62,2.8-2.12,2.66-.74,4.31-.74c1.32,0,2.46.16,3.42.49s1.76.76,2.4,1.3,1.1,1.11,1.39,1.71.44,1.18.44,1.74c0,.52-.18.98-.55,1.4s-.82.62-1.37.62c-.5,0-.88-.12-1.14-.37s-.54-.66-.84-1.22c-.39-.81-.86-1.44-1.41-1.9s-1.43-.68-2.64-.68c-1.12,0-2.03.25-2.72.74s-1.03,1.09-1.03,1.78c0,.43.12.8.35,1.11s.56.58.97.81.83.4,1.25.53,1.11.31,2.08.56c1.21.28,2.31.6,3.29.94s1.82.76,2.5,1.25,1.23,1.11,1.61,1.85.58,1.66.58,2.75Z"/>
    <path class="cls-1" d="M293.51,96.01h-7.82c0,.91.19,1.71.55,2.4s.83,1.22,1.42,1.57,1.24.53,1.96.53c.48,0,.92-.06,1.31-.17s.78-.29,1.15-.53.71-.5,1.03-.77.72-.64,1.22-1.11c.21-.18.5-.26.88-.26.41,0,.74.11,1,.34s.38.54.38.95c0,.36-.14.78-.42,1.27s-.71.95-1.28,1.39c-.57.44-1.29.81-2.15,1.11s-1.86.44-2.98.44c-2.57,0-4.57-.73-5.99-2.2s-2.14-3.45-2.14-5.96c0-1.18.18-2.28.53-3.29s.86-1.88,1.54-2.6,1.5-1.28,2.49-1.66,2.08-.58,3.28-.58c1.56,0,2.9.33,4.02.99s1.96,1.51,2.51,2.56.83,2.11.83,3.19c0,1.01-.29,1.66-.86,1.96s-1.39.45-2.43.45ZM285.69,93.74h7.25c-.1-1.37-.47-2.39-1.11-3.07s-1.48-1.02-2.53-1.02-1.81.34-2.45,1.03-1.03,1.71-1.16,3.05Z"/>
    <path class="cls-1" d="M311.33,96.01h-7.82c0,.91.19,1.71.55,2.4s.83,1.22,1.42,1.57,1.24.53,1.96.53c.48,0,.92-.06,1.31-.17s.78-.29,1.15-.53.71-.5,1.03-.77.72-.64,1.22-1.11c.21-.18.5-.26.88-.26.41,0,.74.11,1,.34s.38.54.38.95c0,.36-.14.78-.42,1.27s-.71.95-1.28,1.39c-.57.44-1.29.81-2.15,1.11s-1.86.44-2.98.44c-2.57,0-4.57-.73-5.99-2.2s-2.14-3.45-2.14-5.96c0-1.18.18-2.28.53-3.29s.86-1.88,1.54-2.6,1.5-1.28,2.49-1.66,2.08-.58,3.28-.58c1.56,0,2.9.33,4.02.99s1.96,1.51,2.51,2.56.83,2.11.83,3.19c0,1.01-.29,1.66-.86,1.96s-1.39.45-2.43.45ZM303.51,93.74h7.25c-.1-1.37-.47-2.39-1.11-3.07s-1.48-1.02-2.53-1.02-1.81.34-2.45,1.03-1.03,1.71-1.16,3.05Z"/>
    <path class="cls-1" d="M333.03,99.56l-3.44-13.68v14.82c0,.82-.18,1.44-.55,1.85s-.85.62-1.46.62-1.06-.2-1.44-.61c-.37-.41-.56-1.02-.56-1.85v-16.99c0-.94.24-1.57.73-1.9s1.15-.49,1.98-.49h1.35c.81,0,1.4.07,1.76.22s.64.41.81.79.38,1,.6,1.86l3.12,11.76,3.12-11.76c.22-.86.42-1.48.6-1.86s.45-.64.81-.79.96-.22,1.77-.22h1.35c.83,0,1.49.16,1.98.49s.73.96.73,1.9v16.99c0,.82-.18,1.44-.55,1.85s-.86.62-1.47.62c-.58,0-1.05-.21-1.42-.62s-.56-1.03-.56-1.85v-14.82l-3.44,13.68c-.22.89-.41,1.54-.55,1.96-.14.42-.4.79-.78,1.14s-.91.51-1.58.51c-.51,0-.94-.11-1.29-.33-.35-.22-.62-.5-.82-.84s-.35-.72-.46-1.14c-.11-.42-.23-.85-.34-1.3Z"/>
    <path class="cls-1" d="M365.46,95.03c0,1.19-.19,2.29-.56,3.3s-.91,1.87-1.61,2.59-1.54,1.28-2.52,1.66c-.98.38-2.08.58-3.3.58s-2.3-.2-3.27-.59-1.8-.95-2.51-1.68c-.71-.73-1.25-1.59-1.61-2.58s-.55-2.09-.55-3.29.19-2.32.56-3.33.9-1.87,1.6-2.58,1.53-1.26,2.52-1.65,2.08-.58,3.27-.58,2.31.2,3.3.59,1.83.95,2.53,1.67,1.24,1.58,1.6,2.58.55,2.09.55,3.3ZM361.45,95.03c0-1.63-.36-2.9-1.08-3.81s-1.68-1.36-2.89-1.36c-.78,0-1.47.2-2.07.61s-1.05,1-1.38,1.79-.48,1.71-.48,2.77.16,1.96.48,2.74.77,1.38,1.36,1.79,1.29.62,2.09.62c1.21,0,2.17-.46,2.89-1.37s1.08-2.18,1.08-3.79Z"/>
    <path class="cls-1" d="M381.49,97.93c0,1.1-.27,2.05-.81,2.83-.54.79-1.33,1.38-2.38,1.79-1.05.4-2.33.61-3.83.61s-2.67-.22-3.69-.66-1.78-.99-2.27-1.65c-.49-.66-.73-1.32-.73-1.98,0-.44.16-.82.47-1.13s.71-.47,1.19-.47c.42,0,.74.1.97.31s.44.49.64.86c.41.71.9,1.25,1.47,1.6s1.35.53,2.34.53c.8,0,1.46-.18,1.97-.53s.77-.76.77-1.22c0-.7-.27-1.22-.8-1.54s-1.41-.63-2.63-.92c-1.38-.34-2.5-.7-3.36-1.08s-1.55-.87-2.07-1.49-.78-1.37-.78-2.27c0-.8.24-1.56.72-2.27s1.18-1.28,2.12-1.71,2.06-.64,3.38-.64c1.04,0,1.96.11,2.79.32s1.51.5,2.07.86.97.76,1.26,1.2.43.87.43,1.29c0,.46-.15.83-.46,1.13s-.74.44-1.31.44c-.41,0-.76-.12-1.05-.35s-.62-.59-.99-1.05c-.3-.39-.66-.7-1.07-.94s-.97-.35-1.67-.35-1.32.15-1.8.46-.72.69-.72,1.15c0,.42.18.76.53,1.03s.83.49,1.42.67,1.42.39,2.46.64c1.24.3,2.25.66,3.04,1.08s1.38.92,1.79,1.49.61,1.22.61,1.96Z"/>
    <path class="cls-1" d="M385.09,87.25h.44v-2.4c0-.64.02-1.15.05-1.52s.13-.68.29-.94c.16-.27.38-.5.67-.67s.62-.26.98-.26c.51,0,.97.19,1.38.57.27.25.45.56.52.93s.11.89.11,1.56v2.72h1.46c.57,0,1,.13,1.3.4s.45.61.45,1.03c0,.54-.21.91-.64,1.13s-1.03.32-1.82.32h-.75v7.35c0,.62.02,1.11.07,1.44s.16.61.35.82.5.31.93.31c.23,0,.55-.04.95-.12s.71-.12.94-.12c.32,0,.61.13.87.39s.39.58.39.96c0,.64-.35,1.14-1.05,1.48s-1.71.51-3.03.51c-1.25,0-2.2-.21-2.84-.63s-1.07-1-1.27-1.74-.3-1.73-.3-2.97v-7.68h-.53c-.58,0-1.02-.14-1.32-.41s-.45-.62-.45-1.04.16-.76.48-1.03.78-.4,1.38-.4Z"/>
    <path class="cls-1" d="M417.42,84.68h-9.8v5.27h9.02c.66,0,1.16.15,1.49.45s.49.69.49,1.18-.16.89-.48,1.19-.82.46-1.49.46h-9.02v6.11h10.14c.68,0,1.2.16,1.54.48s.52.74.52,1.27-.17.92-.52,1.24c-.35.32-.86.48-1.54.48h-11.82c-.95,0-1.63-.21-2.04-.63s-.62-1.1-.62-2.04v-16.14c0-.62.09-1.14.28-1.53s.48-.68.87-.86.9-.27,1.52-.27h11.48c.69,0,1.21.15,1.54.46s.51.71.51,1.21-.17.92-.51,1.22-.85.46-1.54.46Z"/>
    <path class="cls-1" d="M425.83,89.39l3.24,9.08,3.49-9.48c.27-.76.54-1.3.81-1.62s.66-.48,1.2-.48c.51,0,.94.17,1.3.51.36.34.53.74.53,1.19,0,.18-.03.38-.09.62-.06.23-.14.45-.22.66-.08.21-.18.44-.29.7l-3.84,9.52c-.11.27-.25.62-.42,1.04-.17.42-.36.78-.57,1.08-.21.3-.47.53-.78.7-.31.17-.68.25-1.12.25-.57,0-1.02-.13-1.35-.39-.34-.26-.59-.54-.75-.85-.16-.31-.43-.92-.81-1.82l-3.81-9.42c-.09-.23-.18-.47-.27-.7s-.17-.47-.23-.72-.09-.45-.09-.63c0-.27.08-.54.25-.81s.4-.49.69-.66.61-.26.95-.26c.66,0,1.12.19,1.37.57.25.38.53,1.02.83,1.92Z"/>
    <path class="cls-1" d="M441.28,85.04c-.56,0-1.03-.17-1.43-.51-.39-.34-.59-.83-.59-1.45,0-.57.2-1.03.61-1.4.4-.37.88-.55,1.41-.55s.98.17,1.38.5.6.82.6,1.45-.2,1.1-.59,1.44-.85.52-1.39.52ZM443.26,89.17v11.56c0,.8-.19,1.41-.57,1.82s-.86.62-1.45.62-1.06-.21-1.43-.63c-.37-.42-.55-1.02-.55-1.8v-11.44c0-.79.18-1.39.55-1.79.37-.4.84-.6,1.43-.6s1.07.2,1.45.6.57.96.57,1.67Z"/>
    <path class="cls-1" d="M461.73,98.21c0,.5-.15,1.03-.45,1.6s-.75,1.11-1.36,1.62c-.61.51-1.38.93-2.31,1.24s-1.97.47-3.13.47c-2.47,0-4.4-.72-5.79-2.16-1.39-1.44-2.08-3.37-2.08-5.79,0-1.64.32-3.09.95-4.35s1.55-2.23,2.75-2.92,2.64-1.03,4.31-1.03c1.04,0,1.99.15,2.85.45.87.3,1.6.69,2.2,1.17.6.48,1.06.99,1.38,1.53s.48,1.05.48,1.52-.18.88-.54,1.22-.79.5-1.3.5c-.33,0-.61-.09-.83-.26-.22-.17-.47-.45-.74-.83-.49-.74-1-1.3-1.53-1.67s-1.21-.56-2.03-.56c-1.18,0-2.13.46-2.86,1.38s-1.08,2.19-1.08,3.79c0,.75.09,1.44.28,2.07s.45,1.17.81,1.61.78.78,1.27,1.01,1.04.34,1.64.34c.8,0,1.49-.19,2.06-.56.57-.37,1.08-.94,1.52-1.7.24-.45.51-.8.79-1.05s.63-.38,1.04-.38c.49,0,.89.19,1.22.56s.48.77.48,1.19Z"/>
    <path class="cls-1" d="M465.44,87.25h.44v-2.4c0-.64.02-1.15.05-1.52s.13-.68.29-.94c.16-.27.38-.5.67-.67s.62-.26.98-.26c.51,0,.97.19,1.38.57.27.25.45.56.52.93.07.37.11.89.11,1.56v2.72h1.46c.57,0,1,.13,1.3.4s.45.61.45,1.03c0,.54-.21.91-.64,1.13-.43.21-1.03.32-1.82.32h-.75v7.35c0,.62.02,1.11.07,1.44.04.34.16.61.35.82.19.21.5.31.93.31.23,0,.55-.04.95-.12s.71-.12.94-.12c.32,0,.61.13.87.39s.39.58.39.96c0,.64-.35,1.14-1.05,1.48s-1.71.51-3.03.51c-1.25,0-2.2-.21-2.84-.63s-1.07-1-1.27-1.74c-.2-.74-.3-1.73-.3-2.97v-7.68h-.53c-.58,0-1.02-.14-1.32-.41s-.45-.62-.45-1.04.16-.76.48-1.03.78-.4,1.38-.4Z"/>
    <path class="cls-1" d="M477.86,85.04c-.56,0-1.03-.17-1.43-.51-.39-.34-.59-.83-.59-1.45,0-.57.2-1.03.61-1.4.4-.37.88-.55,1.41-.55s.98.17,1.38.5.6.82.6,1.45-.2,1.1-.59,1.44-.85.52-1.39.52ZM479.83,89.17v11.56c0,.8-.19,1.41-.57,1.82s-.86.62-1.45.62-1.06-.21-1.43-.63c-.37-.42-.55-1.02-.55-1.8v-11.44c0-.79.18-1.39.55-1.79.37-.4.84-.6,1.43-.6s1.07.2,1.45.6.57.96.57,1.67Z"/>
    <path class="cls-1" d="M498.94,95.03c0,1.19-.19,2.29-.56,3.3s-.91,1.87-1.61,2.59-1.54,1.28-2.52,1.66c-.98.38-2.08.58-3.3.58s-2.3-.2-3.27-.59-1.8-.95-2.51-1.68c-.71-.73-1.24-1.59-1.61-2.58-.37-.99-.55-2.09-.55-3.29s.19-2.32.56-3.33.9-1.87,1.6-2.58,1.53-1.26,2.52-1.65,2.08-.58,3.27-.58,2.31.2,3.3.59,1.83.95,2.53,1.67,1.24,1.58,1.6,2.58c.37,1,.55,2.09.55,3.3ZM494.92,95.03c0-1.63-.36-2.9-1.08-3.81-.72-.91-1.68-1.36-2.89-1.36-.78,0-1.47.2-2.07.61s-1.05,1-1.38,1.79-.48,1.71-.48,2.77.16,1.96.48,2.74c.32.78.77,1.38,1.36,1.79s1.29.62,2.09.62c1.21,0,2.18-.46,2.89-1.37.72-.91,1.08-2.18,1.08-3.79Z"/>
    <path class="cls-1" d="M505.72,89.11v.48c.7-.93,1.47-1.61,2.31-2.04.83-.43,1.79-.65,2.88-.65s2,.23,2.83.69,1.45,1.11,1.86,1.95c.26.49.43,1.02.51,1.58s.12,1.29.12,2.17v7.44c0,.8-.18,1.41-.55,1.82-.37.41-.84.62-1.43.62s-1.08-.21-1.45-.63-.56-1.02-.56-1.8v-6.67c0-1.32-.18-2.33-.55-3.02-.37-.7-1.1-1.05-2.19-1.05-.71,0-1.36.21-1.95.64s-1.02,1.01-1.29,1.75c-.2.6-.29,1.71-.29,3.34v5.01c0,.81-.19,1.42-.56,1.82-.38.4-.86.61-1.46.61s-1.05-.21-1.42-.63-.56-1.02-.56-1.8v-11.56c0-.76.17-1.33.5-1.71s.79-.56,1.36-.56c.35,0,.67.08.95.25s.51.42.68.75.26.74.26,1.22Z"/>
    <path class="cls-1" d="M533.08,97.93c0,1.1-.27,2.05-.81,2.83-.54.79-1.33,1.38-2.38,1.79-1.05.4-2.33.61-3.83.61s-2.67-.22-3.69-.66-1.78-.99-2.27-1.65c-.49-.66-.73-1.32-.73-1.98,0-.44.16-.82.47-1.13s.71-.47,1.19-.47c.42,0,.74.1.97.31s.44.49.64.86c.41.71.9,1.25,1.47,1.6.57.35,1.35.53,2.34.53.8,0,1.46-.18,1.97-.53.51-.36.77-.76.77-1.22,0-.7-.27-1.22-.8-1.54s-1.41-.63-2.63-.92c-1.38-.34-2.5-.7-3.36-1.08-.87-.38-1.56-.87-2.07-1.49s-.78-1.37-.78-2.27c0-.8.24-1.56.72-2.27s1.18-1.28,2.12-1.71,2.06-.64,3.38-.64c1.04,0,1.96.11,2.79.32.82.21,1.51.5,2.06.86s.97.76,1.26,1.2.43.87.43,1.29c0,.46-.15.83-.46,1.13-.31.29-.74.44-1.31.44-.41,0-.76-.12-1.05-.35-.29-.23-.62-.59-.99-1.05-.3-.39-.66-.7-1.07-.94s-.97-.35-1.67-.35-1.32.15-1.8.46-.72.69-.72,1.15c0,.42.18.76.53,1.03s.83.49,1.42.67,1.42.39,2.46.64c1.24.3,2.25.66,3.04,1.08.79.42,1.38.92,1.79,1.49.4.57.61,1.22.61,1.96Z"/>
    <path class="cls-1" d="M549.03,100.51v-6.81l-5.24-8.13c-.46-.73-.78-1.3-.97-1.71-.19-.41-.29-.77-.29-1.07,0-.5.19-.93.58-1.29.38-.36.86-.54,1.43-.54.6,0,1.05.17,1.36.51.31.34.77,1.01,1.38,2.01l4.01,6.52,4.06-6.52c.24-.4.45-.74.62-1.01s.35-.53.55-.77.42-.42.67-.55.54-.19.89-.19c.55,0,1,.18,1.37.53.37.36.55.77.55,1.24,0,.38-.09.76-.28,1.14s-.5.91-.95,1.58l-5.38,8.25v6.81c0,.89-.21,1.55-.62,1.99s-.93.66-1.57.66-1.17-.22-1.57-.65c-.4-.43-.6-1.1-.6-2Z"/>
    <path class="cls-1" d="M571.99,96.01h-7.82c0,.91.19,1.71.55,2.4.36.69.83,1.22,1.42,1.57s1.24.53,1.96.53c.48,0,.92-.06,1.31-.17.39-.11.78-.29,1.15-.53s.71-.5,1.03-.77.72-.64,1.22-1.11c.21-.18.5-.26.88-.26.41,0,.74.11,1,.34s.38.54.38.95c0,.36-.14.78-.42,1.27s-.71.95-1.28,1.39c-.57.44-1.29.81-2.15,1.11-.87.29-1.86.44-2.98.44-2.57,0-4.57-.73-5.99-2.2s-2.14-3.45-2.14-5.96c0-1.18.18-2.28.53-3.29s.86-1.88,1.54-2.6,1.5-1.28,2.49-1.66,2.08-.58,3.28-.58c1.56,0,2.9.33,4.02.99s1.96,1.51,2.51,2.56.83,2.11.83,3.19c0,1.01-.29,1.66-.86,1.96s-1.39.45-2.43.45ZM564.17,93.74h7.25c-.1-1.37-.47-2.39-1.11-3.07-.64-.68-1.48-1.02-2.53-1.02s-1.81.34-2.45,1.03c-.64.69-1.03,1.71-1.17,3.05Z"/>
    <path class="cls-1" d="M588.76,100.91c-.97.75-1.9,1.32-2.81,1.69-.9.38-1.92.56-3.04.56-1.03,0-1.93-.2-2.7-.61-.78-.41-1.37-.96-1.79-1.65s-.63-1.45-.63-2.26c0-1.09.35-2.03,1.04-2.8s1.65-1.29,2.86-1.55c.25-.06.88-.19,1.89-.4s1.87-.39,2.58-.56c.72-.17,1.5-.38,2.34-.62-.05-1.05-.26-1.83-.64-2.32s-1.15-.74-2.34-.74c-1.02,0-1.78.14-2.29.42-.51.28-.95.71-1.32,1.27-.37.57-.62.94-.78,1.12-.15.18-.48.27-.97.27-.45,0-.84-.14-1.16-.43-.33-.29-.49-.66-.49-1.11,0-.7.25-1.39.75-2.05s1.27-1.21,2.33-1.64,2.37-.64,3.94-.64c1.76,0,3.14.21,4.15.62s1.72,1.07,2.13,1.97c.41.9.62,2.09.62,3.57,0,.94,0,1.73,0,2.39,0,.65-.01,1.38-.02,2.18,0,.75.12,1.54.37,2.35.25.82.37,1.34.37,1.57,0,.41-.19.78-.58,1.12-.39.34-.82.51-1.31.51-.41,0-.82-.19-1.22-.58-.4-.39-.83-.95-1.27-1.68ZM588.5,95.12c-.59.21-1.44.44-2.56.68-1.12.24-1.89.42-2.32.53s-.84.33-1.23.66-.59.78-.59,1.37.23,1.12.69,1.55,1.06.64,1.8.64c.79,0,1.52-.17,2.19-.52s1.16-.79,1.47-1.34c.36-.61.54-1.6.54-2.99v-.57Z"/>
    <path class="cls-1" d="M600.45,97.39v3.34c0,.81-.19,1.42-.57,1.82-.38.4-.86.61-1.45.61s-1.05-.21-1.42-.62-.56-1.02-.56-1.82v-11.13c0-1.8.65-2.7,1.95-2.7.66,0,1.14.21,1.44.63s.45,1.04.48,1.86c.48-.82.97-1.44,1.47-1.86s1.17-.63,2.01-.63,1.66.21,2.45.63,1.19.98,1.19,1.67c0,.49-.17.89-.5,1.21-.34.32-.7.48-1.09.48-.15,0-.5-.09-1.06-.27s-1.06-.27-1.49-.27c-.59,0-1.06.15-1.44.46s-.66.76-.86,1.37-.35,1.33-.42,2.16-.12,1.85-.12,3.05Z"/>
    <path class="cls-1" d="M631.14,100.36l-1.03-2.7h-8.73l-1.03,2.75c-.4,1.07-.74,1.8-1.03,2.17-.28.38-.75.56-1.39.56-.55,0-1.03-.2-1.45-.6s-.63-.85-.63-1.36c0-.29.05-.6.15-.91s.26-.75.48-1.3l5.49-13.95c.16-.4.34-.88.56-1.44.22-.56.46-1.03.7-1.4.25-.37.58-.67.98-.9.4-.23.91-.34,1.5-.34s1.11.11,1.52.34c.4.23.73.52.98.89.25.36.46.75.63,1.16.17.42.39.97.65,1.66l5.61,13.86c.44,1.05.66,1.82.66,2.3s-.21.96-.62,1.37-.92.62-1.5.62c-.34,0-.63-.06-.88-.18-.24-.12-.45-.29-.62-.5-.17-.21-.34-.53-.54-.97-.19-.43-.35-.82-.49-1.15ZM622.53,94.4h6.42l-3.24-8.86-3.18,8.86Z"/>
    <path class="cls-1" d="M638.37,87.25h.95v-1.2c0-1.25.16-2.24.48-2.98.32-.74.85-1.27,1.61-1.61.76-.34,1.79-.51,3.11-.51,2.33,0,3.5.57,3.5,1.71,0,.37-.12.69-.37.95s-.53.4-.86.4c-.16,0-.42-.03-.81-.09s-.7-.09-.97-.09c-.72,0-1.19.21-1.39.64s-.31,1.03-.31,1.82v.95h.98c1.52,0,2.29.46,2.29,1.38,0,.65-.2,1.07-.61,1.25-.41.18-.96.26-1.68.26h-.98v10.59c0,.79-.19,1.39-.56,1.81-.38.42-.86.62-1.46.62s-1.04-.21-1.41-.62c-.38-.41-.56-1.02-.56-1.81v-10.59h-1.1c-.6,0-1.05-.13-1.38-.4s-.48-.62-.48-1.05c0-.96.67-1.44,2.01-1.44Z"/>
    <path class="cls-1" d="M648.91,87.25h.44v-2.4c0-.64.02-1.15.05-1.52s.13-.68.29-.94c.16-.27.38-.5.67-.67s.62-.26.98-.26c.51,0,.97.19,1.38.57.27.25.45.56.52.93.07.37.11.89.11,1.56v2.72h1.46c.57,0,1,.13,1.3.4s.45.61.45,1.03c0,.54-.21.91-.64,1.13-.43.21-1.03.32-1.82.32h-.75v7.35c0,.62.02,1.11.07,1.44.04.34.16.61.35.82.19.21.5.31.93.31.23,0,.55-.04.95-.12s.71-.12.94-.12c.32,0,.61.13.87.39s.39.58.39.96c0,.64-.35,1.14-1.05,1.48s-1.71.51-3.03.51c-1.25,0-2.2-.21-2.84-.63s-1.07-1-1.27-1.74c-.2-.74-.3-1.73-.3-2.97v-7.68h-.53c-.58,0-1.02-.14-1.32-.41s-.45-.62-.45-1.04.16-.76.48-1.03.78-.4,1.38-.4Z"/>
    <path class="cls-1" d="M670.47,96.01h-7.82c0,.91.19,1.71.55,2.4.36.69.83,1.22,1.42,1.57s1.24.53,1.96.53c.48,0,.92-.06,1.31-.17.39-.11.78-.29,1.15-.53s.71-.5,1.03-.77.72-.64,1.22-1.11c.21-.18.5-.26.88-.26.41,0,.74.11,1,.34s.38.54.38.95c0,.36-.14.78-.42,1.27s-.71.95-1.28,1.39c-.57.44-1.29.81-2.15,1.11-.87.29-1.86.44-2.98.44-2.57,0-4.57-.73-5.99-2.2s-2.14-3.45-2.14-5.96c0-1.18.18-2.28.53-3.29s.86-1.88,1.54-2.6,1.5-1.28,2.49-1.66,2.08-.58,3.28-.58c1.56,0,2.9.33,4.02.99s1.96,1.51,2.51,2.56.83,2.11.83,3.19c0,1.01-.29,1.66-.86,1.96s-1.39.45-2.43.45ZM662.65,93.74h7.25c-.1-1.37-.47-2.39-1.11-3.07-.64-.68-1.48-1.02-2.53-1.02s-1.81.34-2.45,1.03c-.64.69-1.03,1.71-1.17,3.05Z"/>
    <path class="cls-1" d="M681.1,97.39v3.34c0,.81-.19,1.42-.57,1.82-.38.4-.86.61-1.45.61s-1.05-.21-1.42-.62-.56-1.02-.56-1.82v-11.13c0-1.8.65-2.7,1.95-2.7.66,0,1.14.21,1.44.63s.45,1.04.48,1.86c.48-.82.97-1.44,1.47-1.86s1.17-.63,2.01-.63,1.66.21,2.45.63,1.19.98,1.19,1.67c0,.49-.17.89-.5,1.21-.34.32-.7.48-1.09.48-.15,0-.5-.09-1.06-.27s-1.06-.27-1.49-.27c-.59,0-1.06.15-1.44.46s-.66.76-.86,1.37-.35,1.33-.42,2.16-.12,1.85-.12,3.05Z"/>
    <path class="cls-1" d="M702.84,100.51v-6.81l-5.24-8.13c-.46-.73-.78-1.3-.97-1.71-.19-.41-.29-.77-.29-1.07,0-.5.19-.93.58-1.29.38-.36.86-.54,1.43-.54.6,0,1.05.17,1.36.51.31.34.77,1.01,1.38,2.01l4.01,6.52,4.06-6.52c.24-.4.45-.74.62-1.01s.35-.53.55-.77.42-.42.67-.55.54-.19.89-.19c.55,0,1,.18,1.37.53.37.36.55.77.55,1.24,0,.38-.09.76-.28,1.14s-.5.91-.95,1.58l-5.38,8.25v6.81c0,.89-.21,1.55-.62,1.99s-.93.66-1.57.66-1.17-.22-1.57-.65c-.4-.43-.6-1.1-.6-2Z"/>
    <path class="cls-1" d="M725.8,96.01h-7.82c0,.91.19,1.71.55,2.4.36.69.83,1.22,1.42,1.57s1.24.53,1.96.53c.48,0,.92-.06,1.31-.17.39-.11.78-.29,1.15-.53s.71-.5,1.03-.77.72-.64,1.22-1.11c.21-.18.5-.26.88-.26.41,0,.74.11,1,.34s.38.54.38.95c0,.36-.14.78-.42,1.27s-.71.95-1.28,1.39c-.57.44-1.29.81-2.15,1.11-.87.29-1.86.44-2.98.44-2.57,0-4.57-.73-5.99-2.2s-2.14-3.45-2.14-5.96c0-1.18.18-2.28.53-3.29s.86-1.88,1.54-2.6,1.5-1.28,2.49-1.66,2.08-.58,3.28-.58c1.56,0,2.9.33,4.02.99s1.96,1.51,2.51,2.56.83,2.11.83,3.19c0,1.01-.29,1.66-.86,1.96s-1.39.45-2.43.45ZM717.97,93.74h7.25c-.1-1.37-.47-2.39-1.11-3.07-.64-.68-1.48-1.02-2.53-1.02s-1.81.34-2.45,1.03c-.64.69-1.03,1.71-1.17,3.05Z"/>
    <path class="cls-1" d="M742.57,100.91c-.97.75-1.9,1.32-2.81,1.69-.9.38-1.92.56-3.04.56-1.03,0-1.93-.2-2.7-.61-.78-.41-1.37-.96-1.79-1.65s-.63-1.45-.63-2.26c0-1.09.35-2.03,1.04-2.8s1.65-1.29,2.86-1.55c.25-.06.88-.19,1.89-.4s1.87-.39,2.58-.56c.72-.17,1.5-.38,2.34-.62-.05-1.05-.26-1.83-.64-2.32s-1.15-.74-2.34-.74c-1.02,0-1.78.14-2.29.42-.51.28-.95.71-1.32,1.27-.37.57-.62.94-.78,1.12-.15.18-.48.27-.97.27-.45,0-.84-.14-1.16-.43-.33-.29-.49-.66-.49-1.11,0-.7.25-1.39.75-2.05s1.27-1.21,2.33-1.64,2.37-.64,3.94-.64c1.76,0,3.14.21,4.15.62s1.72,1.07,2.13,1.97c.41.9.62,2.09.62,3.57,0,.94,0,1.73,0,2.39,0,.65-.01,1.38-.02,2.18,0,.75.12,1.54.37,2.35.25.82.37,1.34.37,1.57,0,.41-.19.78-.58,1.12-.39.34-.82.51-1.31.51-.41,0-.82-.19-1.22-.58-.4-.39-.83-.95-1.27-1.68ZM742.31,95.12c-.59.21-1.44.44-2.56.68-1.12.24-1.89.42-2.32.53s-.84.33-1.23.66-.59.78-.59,1.37.23,1.12.69,1.55,1.06.64,1.8.64c.79,0,1.52-.17,2.19-.52s1.16-.79,1.47-1.34c.36-.61.54-1.6.54-2.99v-.57Z"/>
    <path class="cls-1" d="M754.26,97.39v3.34c0,.81-.19,1.42-.57,1.82-.38.4-.86.61-1.45.61s-1.05-.21-1.42-.62-.56-1.02-.56-1.82v-11.13c0-1.8.65-2.7,1.95-2.7.66,0,1.14.21,1.44.63s.45,1.04.48,1.86c.48-.82.97-1.44,1.47-1.86s1.17-.63,2.01-.63,1.66.21,2.45.63,1.19.98,1.19,1.67c0,.49-.17.89-.5,1.21-.34.32-.7.48-1.09.48-.15,0-.5-.09-1.06-.27s-1.06-.27-1.49-.27c-.59,0-1.06.15-1.44.46s-.66.76-.86,1.37-.35,1.33-.42,2.16-.12,1.85-.12,3.05Z"/>
  </g>
  <g>
    <path class="cls-1" d="M325.53,161.2c0,.87-.22,1.64-.67,2.33s-1.1,1.23-1.96,1.62-1.88.59-3.06.59c-1.41,0-2.58-.27-3.5-.8-.65-.38-1.18-.9-1.59-1.54s-.61-1.26-.61-1.87c0-.35.12-.65.37-.9s.55-.38.93-.38c.31,0,.56.1.78.29s.39.49.54.87c.18.46.38.84.59,1.14s.51.56.89.76.89.3,1.51.3c.86,0,1.56-.2,2.09-.6s.81-.9.81-1.5c0-.48-.14-.86-.43-1.16s-.66-.52-1.12-.68-1.07-.32-1.84-.5c-1.03-.24-1.89-.52-2.58-.84s-1.24-.76-1.65-1.32-.61-1.25-.61-2.08.21-1.49.64-2.1,1.05-1.08,1.87-1.41,1.77-.49,2.87-.49c.88,0,1.64.11,2.28.33s1.17.51,1.6.87.73.74.93,1.14.29.78.29,1.16c0,.34-.12.66-.37.93s-.55.42-.91.42c-.33,0-.58-.08-.76-.25s-.36-.44-.56-.82c-.26-.54-.57-.96-.94-1.26s-.95-.45-1.76-.45c-.75,0-1.35.16-1.81.49s-.69.72-.69,1.19c0,.29.08.53.23.74s.37.39.64.54.55.27.83.35.74.21,1.39.37c.81.19,1.54.4,2.19.62s1.21.5,1.67.83.82.74,1.07,1.24.39,1.11.39,1.83Z"/>
    <path class="cls-1" d="M337.36,162.44c0,.33-.1.69-.3,1.06s-.5.74-.91,1.08-.92.62-1.54.83-1.32.31-2.09.31c-1.65,0-2.93-.48-3.86-1.44s-1.39-2.25-1.39-3.86c0-1.09.21-2.06.63-2.9s1.04-1.49,1.84-1.95,1.76-.69,2.87-.69c.69,0,1.32.1,1.9.3s1.06.46,1.46.78.71.66.92,1.02.32.7.32,1.01-.12.59-.36.81-.53.33-.86.33c-.22,0-.41-.06-.55-.17s-.31-.3-.49-.55c-.33-.5-.67-.87-1.02-1.11s-.81-.37-1.35-.37c-.79,0-1.42.31-1.9.92s-.72,1.46-.72,2.52c0,.5.06.96.19,1.38s.3.78.54,1.07.52.52.85.67.7.23,1.09.23c.53,0,.99-.12,1.37-.37s.72-.62,1.01-1.13c.16-.3.34-.53.53-.7s.42-.25.69-.25c.33,0,.6.12.81.37s.32.51.32.79Z"/>
    <path class="cls-1" d="M342.33,161.89v2.23c0,.54-.13.95-.38,1.22s-.58.41-.97.41-.7-.14-.95-.41-.37-.68-.37-1.21v-7.42c0-1.2.43-1.8,1.3-1.8.44,0,.76.14.96.42s.3.69.32,1.24c.32-.55.65-.96.98-1.24s.78-.42,1.34-.42,1.1.14,1.63.42.79.65.79,1.11c0,.33-.11.59-.34.81s-.47.32-.73.32c-.1,0-.33-.06-.71-.18s-.71-.18-.99-.18c-.39,0-.71.1-.96.31s-.44.51-.58.91-.23.88-.28,1.44-.08,1.24-.08,2.04Z"/>
    <path class="cls-1" d="M357.66,160.32c0,.79-.12,1.53-.37,2.2s-.61,1.25-1.07,1.73-1.03.85-1.68,1.11-1.38.39-2.2.39-1.53-.13-2.18-.39-1.2-.63-1.67-1.12-.83-1.06-1.07-1.72-.37-1.39-.37-2.19.12-1.55.37-2.22.6-1.24,1.06-1.72,1.02-.84,1.68-1.1,1.38-.39,2.18-.39,1.54.13,2.2.39,1.22.63,1.69,1.11.83,1.05,1.07,1.72.37,1.4.37,2.2ZM354.99,160.32c0-1.09-.24-1.93-.72-2.54s-1.12-.91-1.93-.91c-.52,0-.98.13-1.38.41s-.7.67-.92,1.2-.32,1.14-.32,1.85.11,1.31.32,1.83.51.92.91,1.2.86.42,1.39.42c.81,0,1.45-.3,1.93-.91s.72-1.45.72-2.52Z"/>
    <path class="cls-1" d="M359.76,164.12v-11.56c0-.53.12-.94.36-1.21s.56-.41.96-.41.73.13.98.41.37.68.37,1.22v11.56c0,.54-.12.95-.38,1.22s-.57.41-.97.41-.71-.14-.95-.42-.37-.68-.37-1.2Z"/>
    <path class="cls-1" d="M365.18,164.12v-11.56c0-.53.12-.94.36-1.21s.56-.41.96-.41.73.13.98.41.37.68.37,1.22v11.56c0,.54-.12.95-.38,1.22s-.57.41-.97.41-.71-.14-.95-.42-.37-.68-.37-1.2Z"/>
    <path class="cls-1" d="M375.75,155.14h.29v-1.6c0-.43.01-.77.03-1.01s.09-.45.19-.63c.1-.18.25-.33.45-.44s.41-.17.65-.17c.34,0,.64.13.92.38.18.17.3.38.35.62s.07.59.07,1.04v1.82h.98c.38,0,.67.09.86.27s.3.41.3.69c0,.36-.14.61-.42.75s-.69.21-1.22.21h-.5v4.9c0,.42.01.74.04.96s.11.41.23.55.33.21.62.21c.16,0,.37-.03.63-.08s.48-.08.62-.08c.21,0,.41.09.58.26s.26.39.26.64c0,.43-.23.76-.7.99s-1.14.34-2.02.34c-.83,0-1.46-.14-1.89-.42s-.71-.67-.84-1.16-.2-1.16-.2-1.98v-5.12h-.35c-.38,0-.68-.09-.88-.27s-.3-.41-.3-.69.11-.51.32-.69.52-.27.92-.27Z"/>
    <path class="cls-1" d="M392.66,160.32c0,.79-.12,1.53-.37,2.2s-.61,1.25-1.07,1.73-1.03.85-1.68,1.11-1.38.39-2.2.39-1.53-.13-2.18-.39-1.2-.63-1.67-1.12-.83-1.06-1.07-1.72-.37-1.39-.37-2.19.12-1.55.37-2.22.6-1.24,1.06-1.72,1.02-.84,1.68-1.1,1.38-.39,2.18-.39,1.54.13,2.2.39,1.22.63,1.69,1.11.83,1.05,1.07,1.72.37,1.4.37,2.2ZM389.99,160.32c0-1.09-.24-1.93-.72-2.54s-1.12-.91-1.93-.91c-.52,0-.98.13-1.38.41s-.7.67-.92,1.2-.32,1.14-.32,1.85.11,1.31.32,1.83.51.92.91,1.2.86.42,1.39.42c.81,0,1.45-.3,1.93-.91s.72-1.45.72-2.52Z"/>
    <path class="cls-1" d="M407.2,160.98h-5.21c0,.61.13,1.14.37,1.6s.55.81.95,1.04.83.35,1.3.35c.32,0,.61-.04.87-.11s.52-.19.77-.35.48-.33.68-.51.48-.43.81-.74c.14-.12.33-.18.59-.18.27,0,.5.08.66.22s.25.36.25.63c0,.24-.09.52-.28.84s-.47.63-.85.93-.86.54-1.44.74-1.24.29-1.99.29c-1.71,0-3.04-.49-3.99-1.46s-1.43-2.3-1.43-3.97c0-.79.12-1.52.35-2.19s.58-1.25,1.03-1.73,1-.85,1.66-1.11,1.39-.39,2.19-.39c1.04,0,1.94.22,2.68.66s1.3,1.01,1.67,1.7.56,1.41.56,2.13c0,.67-.19,1.11-.58,1.3s-.92.3-1.62.3ZM401.99,159.46h4.83c-.07-.91-.31-1.59-.74-2.05s-.99-.68-1.68-.68-1.21.23-1.64.69-.69,1.14-.78,2.04Z"/>
    <path class="cls-1" d="M417.17,164.64l-1.93-2.84-1.98,2.84c-.29.4-.53.68-.73.85s-.45.25-.76.25c-.34,0-.63-.11-.86-.32s-.36-.45-.36-.73.18-.68.55-1.2l2.41-3.46-2.14-2.88c-.37-.48-.56-.89-.56-1.24,0-.27.11-.51.33-.71s.51-.3.87-.3c.31,0,.57.09.78.26s.44.45.72.83l1.73,2.36,1.68-2.36c.28-.39.52-.67.73-.84s.46-.25.77-.25c.35,0,.64.1.87.3s.35.44.35.72c0,.2-.05.4-.14.58s-.24.41-.43.66l-2.14,2.88,2.41,3.46c.38.54.57.95.57,1.22s-.12.52-.35.72-.52.3-.87.3c-.31,0-.56-.09-.78-.26s-.45-.46-.73-.84Z"/>
    <path class="cls-1" d="M424.27,156.4v.32c.5-.62,1.02-1.07,1.56-1.36s1.15-.43,1.84-.43c.82,0,1.58.21,2.27.63s1.24,1.04,1.64,1.86.6,1.78.6,2.89c0,.82-.12,1.57-.35,2.26s-.55,1.26-.95,1.73-.88.82-1.43,1.07-1.14.38-1.77.38c-.76,0-1.4-.15-1.92-.46s-1.01-.75-1.48-1.35v4c0,1.17-.43,1.76-1.28,1.76-.5,0-.83-.15-1-.45s-.24-.74-.24-1.32v-11.5c0-.51.11-.89.33-1.14s.52-.38.91-.38.69.13.92.39.36.63.36,1.11ZM429.49,160.27c0-.7-.11-1.31-.32-1.81s-.51-.89-.89-1.16-.8-.41-1.26-.41c-.74,0-1.36.29-1.86.87s-.76,1.43-.76,2.56c0,1.06.25,1.89.75,2.48s1.12.88,1.87.88c.44,0,.85-.13,1.23-.39s.68-.64.91-1.16.34-1.14.34-1.87Z"/>
    <path class="cls-1" d="M434.3,164.12v-11.56c0-.53.12-.94.36-1.21s.56-.41.96-.41.73.13.98.41.37.68.37,1.22v11.56c0,.54-.12.95-.38,1.22s-.57.41-.97.41-.71-.14-.95-.42-.37-.68-.37-1.2Z"/>
    <path class="cls-1" d="M449.7,160.32c0,.79-.12,1.53-.37,2.2s-.61,1.25-1.07,1.73-1.03.85-1.68,1.11-1.38.39-2.2.39-1.53-.13-2.18-.39-1.2-.63-1.67-1.12-.83-1.06-1.07-1.72-.37-1.39-.37-2.19.12-1.55.37-2.22.6-1.24,1.06-1.72,1.02-.84,1.68-1.1,1.38-.39,2.18-.39,1.54.13,2.2.39,1.22.63,1.69,1.11.83,1.05,1.07,1.72.37,1.4.37,2.2ZM447.03,160.32c0-1.09-.24-1.93-.72-2.54s-1.12-.91-1.93-.91c-.52,0-.98.13-1.38.41s-.7.67-.92,1.2-.32,1.14-.32,1.85.11,1.31.32,1.83.51.92.91,1.2.86.42,1.39.42c.81,0,1.45-.3,1.93-.91s.72-1.45.72-2.52Z"/>
    <path class="cls-1" d="M454.45,161.89v2.23c0,.54-.13.95-.38,1.22s-.58.41-.97.41-.7-.14-.95-.41-.37-.68-.37-1.21v-7.42c0-1.2.43-1.8,1.3-1.8.44,0,.76.14.96.42s.3.69.32,1.24c.32-.55.65-.96.98-1.24s.78-.42,1.34-.42,1.1.14,1.63.42.79.65.79,1.11c0,.33-.11.59-.34.81s-.47.32-.73.32c-.1,0-.33-.06-.71-.18s-.71-.18-.99-.18c-.39,0-.71.1-.96.31s-.44.51-.58.91-.23.88-.28,1.44-.08,1.24-.08,2.04Z"/>
    <path class="cls-1" d="M467.51,160.98h-5.21c0,.61.13,1.14.37,1.6s.55.81.95,1.04.83.35,1.3.35c.32,0,.61-.04.87-.11s.52-.19.77-.35.48-.33.68-.51.48-.43.81-.74c.14-.12.33-.18.59-.18.27,0,.5.08.66.22s.25.36.25.63c0,.24-.09.52-.28.84s-.47.63-.85.93-.86.54-1.44.74-1.24.29-1.99.29c-1.71,0-3.04-.49-3.99-1.46s-1.43-2.3-1.43-3.97c0-.79.12-1.52.35-2.19s.58-1.25,1.03-1.73,1-.85,1.66-1.11,1.39-.39,2.19-.39c1.04,0,1.94.22,2.68.66s1.3,1.01,1.67,1.7.56,1.41.56,2.13c0,.67-.19,1.11-.58,1.3s-.92.3-1.62.3ZM462.29,159.46h4.83c-.07-.91-.31-1.59-.74-2.05s-.99-.68-1.68-.68-1.21.23-1.64.69-.69,1.14-.78,2.04Z"/>
    <path class="cls-1" d="M485.82,160.52v3.54c0,.56-.13.98-.38,1.26s-.59.42-1.01.42-.73-.14-.98-.42-.38-.7-.38-1.26v-4.25c0-.67-.02-1.19-.07-1.56s-.17-.68-.37-.91-.52-.36-.96-.36c-.87,0-1.45.3-1.72.9s-.42,1.46-.42,2.58v3.6c0,.55-.12.97-.38,1.25s-.58.42-.99.42-.73-.14-.99-.42-.39-.7-.39-1.25v-7.63c0-.5.12-.88.35-1.14s.54-.39.91-.39.67.12.91.37.37.58.37,1.01v.25c.46-.55.96-.96,1.48-1.22s1.11-.39,1.76-.39,1.25.13,1.73.4.88.67,1.19,1.21c.45-.55.93-.95,1.45-1.22s1.08-.4,1.71-.4c.73,0,1.36.14,1.88.43s.92.7,1.18,1.23c.23.48.34,1.24.34,2.28v5.21c0,.56-.13.98-.38,1.26s-.59.42-1.01.42-.73-.14-.99-.42-.39-.7-.39-1.25v-4.48c0-.57-.02-1.03-.07-1.38s-.18-.63-.4-.87-.54-.35-.98-.35c-.35,0-.69.1-1,.31s-.56.49-.74.84c-.2.45-.29,1.24-.29,2.38Z"/>
    <path class="cls-1" d="M501.38,164.24c-.64.5-1.27.88-1.87,1.13s-1.28.38-2.03.38c-.68,0-1.28-.13-1.8-.41s-.92-.64-1.2-1.1-.42-.96-.42-1.5c0-.73.23-1.35.69-1.87s1.1-.86,1.9-1.04c.17-.04.59-.13,1.26-.26s1.25-.26,1.72-.38,1-.25,1.56-.42c-.03-.7-.17-1.22-.42-1.55s-.77-.49-1.56-.49c-.68,0-1.19.09-1.53.28s-.63.47-.88.85-.42.63-.52.75-.32.18-.65.18c-.3,0-.56-.1-.78-.29s-.33-.44-.33-.74c0-.47.17-.92.5-1.37s.85-.81,1.55-1.09,1.58-.43,2.63-.43c1.17,0,2.09.14,2.76.42s1.14.71,1.42,1.31.42,1.39.42,2.38c0,.62,0,1.16,0,1.59s0,.92-.01,1.46c0,.5.08,1.02.25,1.57s.25.89.25,1.05c0,.27-.13.52-.39.75s-.55.34-.87.34c-.27,0-.54-.13-.81-.39s-.55-.63-.85-1.12ZM501.21,160.38c-.39.14-.96.29-1.7.45s-1.26.28-1.55.35-.56.22-.82.44-.39.52-.39.91.15.75.46,1.03.71.42,1.2.42c.53,0,1.01-.12,1.46-.35s.77-.53.98-.89c.24-.4.36-1.07.36-1.99v-.38Z"/>
    <path class="cls-1" d="M508.73,156.4v.32c.5-.62,1.02-1.07,1.56-1.36s1.15-.43,1.84-.43c.82,0,1.58.21,2.27.63s1.24,1.04,1.64,1.86.6,1.78.6,2.89c0,.82-.12,1.57-.35,2.26s-.55,1.26-.95,1.73-.88.82-1.43,1.07-1.14.38-1.77.38c-.76,0-1.4-.15-1.92-.46s-1.01-.75-1.48-1.35v4c0,1.17-.43,1.76-1.28,1.76-.5,0-.83-.15-1-.45s-.24-.74-.24-1.32v-11.5c0-.51.11-.89.33-1.14s.52-.38.91-.38.69.13.92.39.36.63.36,1.11ZM513.95,160.27c0-.7-.11-1.31-.32-1.81s-.51-.89-.89-1.16-.8-.41-1.26-.41c-.74,0-1.36.29-1.86.87s-.76,1.43-.76,2.56c0,1.06.25,1.89.75,2.48s1.12.88,1.87.88c.44,0,.85-.13,1.23-.39s.68-.64.91-1.16.34-1.14.34-1.87Z"/>
  </g>
  <polyline class="cls-2" points="413.66 182.5 421.66 189.5 428.14 182.5"/>
</svg>